<?xml version="1.0" standalone="no"?>
<!DOCTYPE svg PUBLIC "-//W3C//DTD SVG 20010904//EN"
 "http://www.w3.org/TR/2001/REC-SVG-20010904/DTD/svg10.dtd">
<svg version="1.0" xmlns="http://www.w3.org/2000/svg"
 width="640.000000pt" height="640.000000pt" viewBox="0 0 640.000000 640.000000"
 preserveAspectRatio="xMidYMid meet">
<metadata>
Created by potrace 1.16, written by Peter Selinger 2001-2019
</metadata>
<g transform="translate(0.000000,640.000000) scale(0.100000,-0.100000)"
fill="#000000" stroke="none">
<path d="M3368 6151 c-26 -14 -56 -38 -68 -53 -21 -28 -38 -95 -41 -169 -2
-49 -24 -165 -41 -219 -6 -19 -51 -141 -100 -270 -49 -129 -110 -289 -134
-355 -25 -66 -59 -154 -74 -195 -16 -41 -79 -210 -141 -375 -61 -165 -146
-394 -189 -510 -152 -410 -241 -710 -306 -1022 -2 -13 -38 -51 -81 -85 -42
-35 -116 -99 -165 -143 -49 -44 -102 -89 -117 -100 -42 -29 -62 -68 -65 -131
-3 -40 0 -57 10 -61 8 -3 14 -13 14 -22 0 -20 79 -41 140 -38 l35 2 6 -145 c4
-80 12 -170 18 -200 8 -39 8 -69 1 -105 -6 -27 -11 -86 -13 -131 -2 -75 0 -83
27 -118 27 -36 31 -38 69 -32 75 12 161 62 223 129 70 75 97 139 102 246 2 41
8 83 13 93 6 11 10 40 8 66 -1 26 2 56 6 67 19 54 24 72 27 93 2 18 22 31 103
68 110 49 167 76 175 84 3 3 23 14 45 25 48 24 131 84 218 159 l66 55 5 -27
c5 -29 12 -312 22 -897 3 -205 9 -361 15 -363 15 -6 10 -22 -7 -22 -8 0 -13
-3 -11 -7 3 -5 8 -96 11 -203 13 -388 60 -632 164 -863 36 -79 62 -115 98
-133 35 -19 36 -18 57 17 24 44 21 80 -11 123 -18 25 -27 47 -24 61 3 16 -2
27 -16 34 -11 6 -22 17 -26 26 -4 13 -2 14 14 5 17 -9 18 -8 9 18 -5 15 -9 37
-8 47 4 42 -1 55 -18 48 -10 -3 -15 -3 -11 2 4 4 3 17 -3 29 -10 21 -10 21 7
1 16 -19 16 -19 9 15 -10 43 -16 141 -15 239 0 50 -4 78 -12 84 -9 6 -8 7 4 4
22 -8 41 17 44 56 3 49 14 314 19 497 3 91 10 206 14 255 5 50 7 98 5 108 -8
46 -5 127 7 177 8 30 14 100 15 156 0 55 3 104 6 110 3 5 6 135 7 289 1 154 4
309 7 345 2 36 6 101 7 145 2 44 4 90 5 103 1 13 35 57 82 106 44 46 80 86 80
90 0 3 63 69 140 147 77 78 140 145 140 150 0 5 8 9 18 9 21 1 62 34 62 51 0
7 3 10 6 6 3 -3 34 9 67 28 34 18 80 38 102 45 53 17 101 65 109 113 6 33 4
38 -18 47 -18 6 -40 5 -75 -5 -118 -36 -446 -228 -419 -247 9 -7 8 -8 -5 -4
-18 6 -97 -40 -145 -83 -12 -12 -25 -21 -28 -21 -3 0 -22 -11 -42 -25 -44 -30
-52 -31 -52 -7 0 10 -5 23 -12 30 -8 8 -8 15 2 27 8 10 15 55 18 123 5 125 5
138 3 172 -5 74 0 201 8 223 6 14 12 61 15 104 3 43 6 79 7 81 1 1 2 5 3 10 1
4 4 12 7 17 4 6 7 27 7 48 1 20 9 79 18 130 9 50 17 99 18 107 0 8 7 19 14 23
6 4 12 20 12 34 0 15 7 34 15 43 8 9 18 39 21 66 3 27 17 73 31 102 14 30 27
76 29 103 2 28 6 55 10 61 12 18 36 209 38 288 0 41 -3 113 -7 160 -5 47 -8
118 -8 158 1 64 4 78 26 104 14 16 25 36 25 44 0 48 -151 224 -191 224 -10 0
-20 4 -23 9 -4 5 -25 12 -49 16 -23 4 -49 11 -57 15 -8 4 -37 10 -65 13 -42 4
-58 0 -97 -22z m-274 -2326 c4 -143 9 -302 12 -353 l4 -92 -85 -42 -85 -42
-45 22 c-56 27 -56 29 -8 140 8 18 27 74 42 125 15 50 32 101 38 112 22 41 68
215 96 358 6 32 14 52 18 45 3 -7 10 -130 13 -273z m283 -3025 c1 -45 -16 -54
-40 -20 -8 11 -16 17 -19 14 -7 -6 39 -54 51 -54 9 0 21 -24 21 -41 0 -5 -4
-9 -10 -9 -5 0 -10 9 -10 19 0 22 -26 36 -36 19 -4 -6 3 -18 14 -27 13 -10 23
-31 26 -55 3 -21 9 -43 15 -49 5 -5 7 -16 4 -23 -3 -8 2 -17 11 -20 13 -5 14
-9 5 -20 -6 -8 -15 -12 -19 -9 -18 11 -19 -40 -1 -60 19 -20 17 -44 -3 -57
-18 -12 -24 -9 -32 15 -4 12 -16 30 -27 40 -11 9 -17 17 -13 17 4 0 0 7 -8 16
-17 17 -21 36 -9 48 11 11 12 67 2 60 -5 -3 -9 -17 -10 -32 0 -24 -1 -25 -9
-7 -4 11 -4 24 1 30 15 15 10 38 -6 31 -11 -4 -15 2 -15 20 0 17 4 23 13 18 9
-6 9 -5 0 7 -7 9 -8 20 -4 28 7 10 10 9 16 -8 3 -12 11 -19 16 -16 5 4 9 -1 9
-9 0 -9 5 -16 11 -16 7 0 9 18 7 47 -2 35 -9 53 -26 68 -29 25 -21 55 14 55
13 0 24 5 24 10 0 6 8 10 18 10 13 0 17 -9 19 -40z"/>
</g>
</svg>
